<?xml version="1.0" encoding="UTF-8"?>
<svg version="1.1" xmlns="http://www.w3.org/2000/svg" width="405" height="97">
<path d="M0 0 C2.31186227 1.69411401 2.31186227 1.69411401 5.1484375 0.73046875 C6.2003125 0.27671875 7.2521875 -0.17703125 8.3359375 -0.64453125 C9.68685696 -1.17373002 11.04120431 -1.69424202 12.3984375 -2.20703125 C13.02878906 -2.45582031 13.65914063 -2.70460937 14.30859375 -2.9609375 C25.2745476 -6.65851346 37.92600019 -5.25913482 48.21875 -0.23828125 C59.83336461 6.62048838 67.62245045 16.21057244 71.11328125 29.26171875 C73.75394413 42.37873696 71.87723487 54.11997313 64.98828125 65.6015625 C58.18484578 75.32346333 48.23814603 83.218627 36.3359375 85.35546875 C24.69103214 86.10794674 15.4078716 84.98079962 4.6484375 80.1484375 C3.8853125 79.88675781 3.1221875 79.62507813 2.3359375 79.35546875 C-0.04548555 80.56584056 -0.04548555 80.56584056 -2.6640625 82.35546875 C-11.52955686 86.96305747 -23.41883984 86.71886243 -32.9921875 84.62890625 C-38.68828823 82.67186606 -43.75536718 79.81976637 -48.6640625 76.35546875 C-49.5096875 75.79859375 -50.3553125 75.24171875 -51.2265625 74.66796875 C-60.16727566 66.1857537 -65.62955262 54.60910715 -66.20483398 42.27807617 C-66.35323705 28.29317144 -61.3621279 17.32126956 -51.9765625 7.16796875 C-38.79813026 -5.45611261 -16.15609921 -9.97319321 0 0 Z " fill="#FC7917" transform="translate(67.6640625,5.64453125)"/>
<path d="M0 0 C-0.125 1.6875 -0.125 1.6875 -1 4 C-1.86625 4.680625 -2.7325 5.36125 -3.625 6.0625 C-11.44139693 12.22542835 -16.01027442 22.45167191 -18 32 C-19.56965987 46.28875943 -15.40411285 57.57947319 -7 69 C-4.75530167 71.75565107 -2.43780993 74.41399494 0 77 C-3.3199003 81.97985044 -8.31813383 82.78794738 -14 84 C-27.98423112 85.56651351 -39.42032546 83.17232203 -51 75 C-51.845625 74.443125 -52.69125 73.88625 -53.5625 73.3125 C-62.50321316 64.83028495 -67.96549012 53.2536384 -68.54077148 40.92260742 C-68.68917455 26.93770269 -63.6980654 15.96580081 -54.3125 5.8125 C-40.03758716 -7.8619385 -16.88544442 -10.90072994 0 0 Z " fill="#69DAFE" transform="translate(70,7)"/>
<path d="M0 0 C7.12539226 1.9432888 11.48195094 7.8723015 15.25 13.875 C21.39399334 24.86519129 22.78928349 36.07380044 20.30859375 48.44921875 C17.05242168 59.08968061 10.6715544 68.01320474 2 75 C-1 75 -1 75 -2.578125 73.63671875 C-12.83547764 61.67779593 -19.93030535 49.61766326 -19.37890625 33.44921875 C-17.95957375 20.52890329 -11.55467525 9.28813346 -1.50390625 1.14453125 C-0.75947266 0.57798828 -0.75947266 0.57798828 0 0 Z " fill="#5E2D04" transform="translate(70,9)"/>
<path d="M0 0 C0.66 0.33 1.32 0.66 2 1 C1.625 3.9375 1.625 3.9375 1 7 C-1.70879335 8.35439668 -4.00933268 8.06501451 -7 8 C-7 8.99 -7 9.98 -7 11 C-1.72 11.33 3.56 11.66 9 12 C9.63228516 13.71509766 9.63228516 13.71509766 10.27734375 15.46484375 C10.83058521 16.95578259 11.38397847 18.44666511 11.9375 19.9375 C12.35418945 21.06961914 12.35418945 21.06961914 12.77929688 22.22460938 C13.91753451 25.88779139 13.91753451 25.88779139 16 29 C17.98 23.39 19.96 17.78 22 12 C24.97 12 27.94 12 31 12 C27.6330565 21.8961531 24.2191497 31.77732112 20.375 41.5 C20.11066162 42.19859131 19.84632324 42.89718262 19.57397461 43.61694336 C17.81110729 47.97008049 16.01767767 50.53460688 12 53 C9.6484375 53.64453125 9.6484375 53.64453125 7.375 53.8125 C6.24191406 53.91498047 6.24191406 53.91498047 5.0859375 54.01953125 C3 54 3 54 0 53 C0.33 50.69 0.66 48.38 1 46 C3.64 45.67 6.28 45.34 9 45 C10.22390013 40.75194774 9.72284355 38.34481841 8.12890625 34.26171875 C7.71962891 33.19501953 7.31035156 32.12832031 6.88867188 31.02929688 C6.45103516 29.92650391 6.01339844 28.82371094 5.5625 27.6875 C5.12873047 26.56537109 4.69496094 25.44324219 4.24804688 24.28710938 C3.17658304 21.52014232 2.09360682 18.75827362 1 16 C0.67 16.66 0.34 17.32 0 18 C-2.31 18.33 -4.62 18.66 -7 19 C-7.33 26.26 -7.66 33.52 -8 41 C-10.64 41 -13.28 41 -16 41 C-16 33.41 -16 25.82 -16 18 C-17.32 18 -18.64 18 -20 18 C-20 16.02 -20 14.04 -20 12 C-18.68 12 -17.36 12 -16 12 C-16.103125 10.7625 -16.20625 9.525 -16.3125 8.25 C-16.27833093 5.03810738 -16.14583857 4.20115665 -14.1875 1.5 C-9.52797338 -0.69271841 -5.07213875 -0.49822941 0 0 Z " fill="#F49356" transform="translate(362,26)"/>
<path d="M0 0 C3.10460292 2.4268375 4.75361252 5.26083757 6 9 C6.50849203 15.22902738 6.73444209 20.72027152 3 26 C0.80403848 28.38418679 -0.72821409 29.82329393 -3.99609375 30.27734375 C-7.23510144 30.33083195 -9.92400555 30.02533148 -13 29 C-13.33 32.96 -13.66 36.92 -14 41 C-16.97 41 -19.94 41 -23 41 C-23 27.47 -23 13.94 -23 0 C-19.33333333 0 -15.66666667 0 -12 0 C-7.81809774 -1.39396742 -4.23460993 -1.22580814 0 0 Z M-13 8 C-14.2220897 10.4441794 -14.23641068 12.21029872 -14.3125 14.9375 C-14.34988281 15.81277344 -14.38726562 16.68804687 -14.42578125 17.58984375 C-14.21642276 20.14157182 -14.21642276 20.14157182 -12.140625 21.81640625 C-10.03391983 23.20665677 -10.03391983 23.20665677 -7.4375 23 C-4.86557614 22.14858599 -4.86557614 22.14858599 -3.125 19.9375 C-1.63926183 16.05807254 -1.57205244 12.92685578 -3 9 C-7.14269648 5.68584282 -8.55413046 5.49919839 -13 8 Z " fill="#26B9D4" transform="translate(202,38)"/>
<path d="M0 0 C2.64 0 5.28 0 8 0 C8 13.53 8 27.06 8 41 C5.36 41 2.72 41 0 41 C-0.33 40.34 -0.66 39.68 -1 39 C-1.495 39.495 -1.99 39.99 -2.5 40.5 C-5.97229376 42.58337626 -9.10810383 42.80083248 -13 42 C-16.24348591 40.27156343 -18.41380722 37.93257943 -20.375 34.8125 C-21.95806352 27.68871418 -21.63774716 21.36605752 -18 15 C-15.04426042 11.58953125 -11.49434012 11.42313265 -7.21875 10.91796875 C-5 11 -5 11 -1 13 C-0.67 8.71 -0.34 4.42 0 0 Z M-10.16015625 19.15625 C-12.22933421 20.88516031 -12.22933421 20.88516031 -12.49609375 23.59375 C-12.47675781 24.5528125 -12.45742188 25.511875 -12.4375 26.5 C-12.43621094 27.4590625 -12.43492187 28.418125 -12.43359375 29.40625 C-11.94229201 32.34520814 -11.38661092 33.27156715 -9 35 C-6.20342824 35.41948576 -4.68310899 35.41474475 -2.25 33.9375 C-0.35569092 31.00132092 -0.17887189 28.45818994 0 25 C-1.0351799 21.11807539 -1.58374862 20.27750092 -5 18 C-7.96753386 17.76404416 -7.96753386 17.76404416 -10.16015625 19.15625 Z " fill="#F79252" transform="translate(298,26)"/>
<path d="M0 0 C2.4375 1.6875 2.4375 1.6875 4.4375 4.6875 C3.1175 6.3375 1.7975 7.9875 0.4375 9.6875 C-0.243125 9.378125 -0.92375 9.06875 -1.625 8.75 C-4.95686899 7.5448559 -8.03939403 7.01986849 -11.5625 6.6875 C-12.5525 7.1825 -12.5525 7.1825 -13.5625 7.6875 C-13.5625 9.0075 -13.5625 10.3275 -13.5625 11.6875 C-12.52609375 11.99042969 -11.4896875 12.29335938 -10.421875 12.60546875 C-9.0518069 13.02775001 -7.68203013 13.45097727 -6.3125 13.875 C-5.63058594 14.07158203 -4.94867188 14.26816406 -4.24609375 14.47070312 C0.40528066 15.93836981 2.94017123 17.47049168 5.4375 21.6875 C6.34132687 25.84368026 5.85176359 29.62882638 4.3125 33.5625 C1.26475019 37.01661645 -1.51900603 38.4312821 -6.1171875 39.0078125 C-12.22800947 39.26172477 -17.67896779 38.65307503 -22.5625 34.6875 C-23.77734375 32.546875 -23.77734375 32.546875 -24.5625 30.6875 C-23.2425 29.0375 -21.9225 27.3875 -20.5625 25.6875 C-20.046875 25.955625 -19.53125 26.22375 -19 26.5 C-18.195625 26.891875 -17.39125 27.28375 -16.5625 27.6875 C-14.8609375 28.55375 -14.8609375 28.55375 -13.125 29.4375 C-9.68965088 31.02342769 -9.68965088 31.02342769 -6.625 29.875 C-5.944375 29.483125 -5.26375 29.09125 -4.5625 28.6875 C-5.0575 26.2125 -5.0575 26.2125 -5.5625 23.6875 C-6.45453125 23.44515625 -7.3465625 23.2028125 -8.265625 22.953125 C-10.02132812 22.45039062 -10.02132812 22.45039062 -11.8125 21.9375 C-12.97265625 21.61265625 -14.1328125 21.2878125 -15.328125 20.953125 C-18.72160211 19.62524265 -20.35519301 18.55699909 -22.5625 15.6875 C-24.15573861 11.12353522 -23.99313431 7.59845719 -21.9375 3.25 C-16.29289572 -2.84023093 -7.41548543 -2.73202095 0 0 Z " fill="#1ABCD8" transform="translate(168.5625,29.3125)"/>
<path d="M0 0 C2.7962326 1.77942075 4.0233219 2.96867477 5.75 5.75 C6.296875 8.29296875 6.296875 8.29296875 6.5 10.9375 C6.57734375 11.81792969 6.6546875 12.69835938 6.734375 13.60546875 C6.73953125 14.31316406 6.7446875 15.02085938 6.75 15.75 C5.75 16.75 5.75 16.75 3.98413086 16.86352539 C3.23526611 16.85828857 2.48640137 16.85305176 1.71484375 16.84765625 C0.90595703 16.84443359 0.09707031 16.84121094 -0.73632812 16.83789062 C-1.58646484 16.82951172 -2.43660156 16.82113281 -3.3125 16.8125 C-4.16650391 16.80798828 -5.02050781 16.80347656 -5.90039062 16.79882812 C-8.01695663 16.78700373 -10.13348685 16.76906769 -12.25 16.75 C-10.92205414 20.00796331 -10.92205414 20.00796331 -7.9375 21.6875 C-5.1387149 21.99888327 -5.1387149 21.99888327 -2.75 20.1875 C-0.25 18.75 -0.25 18.75 2.5 19.3125 C4.75 20.75 4.75 20.75 5.5625 22.875 C5.624375 23.49375 5.68625 24.1125 5.75 24.75 C0.57068066 28.9752342 -2.00353467 30.11934921 -8.640625 30.0234375 C-12.8767277 29.57953452 -14.89426851 28.42088833 -18.25 25.75 C-21.3906941 20.58305164 -22.03657729 15.65471716 -21.25 9.75 C-19.55835942 5.03121312 -17.38951382 2.54417183 -13.25 -0.25 C-8.50101245 -1.83299585 -4.68540528 -1.80207896 0 0 Z M-11.0625 7.125 C-12.4466722 8.68368783 -12.4466722 8.68368783 -12.25 10.75 C-8.95 10.75 -5.65 10.75 -2.25 10.75 C-2.82125354 7.00724788 -2.82125354 7.00724788 -4.25 5.75 C-7.17728993 5.44186422 -8.67560445 5.31425165 -11.0625 7.125 Z " fill="#28B9D0" transform="translate(233.25,38.25)"/>
<path d="M0 0 C3.13154091 1.3522563 4.60619967 2.20362361 6.12841797 5.28198242 C7.04254465 8.13267497 7.23020883 10.31714527 7.1953125 13.30078125 C7.18886719 14.27724609 7.18242187 15.25371094 7.17578125 16.25976562 C7.15902344 17.26716797 7.14226562 18.27457031 7.125 19.3125 C7.11597656 20.33923828 7.10695313 21.36597656 7.09765625 22.42382812 C7.07416201 24.94945899 7.04131131 27.4746081 7 30 C5 31 5 31 -2 30 C-2.33 23.07 -2.66 16.14 -3 9 C-4.32 8.67 -5.64 8.34 -7 8 C-9.41343097 9.28220077 -9.41343097 9.28220077 -11 12 C-11.6216299 15.07840643 -11.69613649 18.11612303 -11.75 21.25 C-11.77964844 22.09046875 -11.80929688 22.9309375 -11.83984375 23.796875 C-11.91031636 25.8640715 -11.95744939 27.93204033 -12 30 C-14.64 30 -17.28 30 -20 30 C-20 20.43 -20 10.86 -20 1 C-17.36 1 -14.72 1 -12 1 C-12 1.66 -12 2.32 -12 3 C-10.700625 2.2575 -10.700625 2.2575 -9.375 1.5 C-5.79170785 -0.09257429 -3.86001998 -0.49276851 0 0 Z " fill="#0CBFDF" transform="translate(265,37)"/>
<path d="M0 0 C2.64 0 5.28 0 8 0 C8.33 11.22 8.66 22.44 9 34 C9.99 34.33 10.98 34.66 12 35 C12.38133299 36.9914056 12.71325582 38.99279077 13 41 C12 42 12 42 8.75 42.375 C5 42 5 42 2.29614258 40.01293945 C-0.76366453 35.99793897 -0.64978001 33.32132316 -0.48828125 28.41796875 C-0.48120651 27.60378983 -0.47413177 26.7896109 -0.46684265 25.95075989 C-0.43895598 23.36205357 -0.37623316 20.77554727 -0.3125 18.1875 C-0.2874095 16.42776572 -0.26459764 14.66799737 -0.24414062 12.90820312 C-0.18914872 8.60462704 -0.10291992 4.3026859 0 0 Z " fill="#F79353" transform="translate(313,26)"/>
<path d="M0 0 C1.44010481 0.25662245 2.8770687 0.53090821 4.3125 0.8125 C5.11300781 0.96332031 5.91351563 1.11414062 6.73828125 1.26953125 C9.30120216 2.09727945 10.36976446 2.87514191 12 5 C12.875 8.5 12.875 8.5 13 12 C11.625 13.9375 11.625 13.9375 10 15 C9.67 15 9.34 15 9 15 C8.9175 15.78375 8.835 16.5675 8.75 17.375 C8 20 8 20 6.25 21.109375 C1.56812352 22.96261777 -3.47299243 23.74053036 -8.359375 22.30859375 C-12.33255997 20.45975768 -14.2632889 19.12468887 -16 15 C-14.68 13.35 -13.36 11.7 -12 10 C-11.484375 10.268125 -10.96875 10.53625 -10.4375 10.8125 C-9.633125 11.204375 -8.82875 11.59625 -8 12 C-6.906875 12.5775 -5.81375 13.155 -4.6875 13.75 C-0.05438328 15.32054804 1.55424857 14.7238628 6 13 C5.37189827 10.02982306 5.37189827 10.02982306 4 7 C1.49004504 5.56076801 1.49004504 5.56076801 -1 5 C-0.67 3.35 -0.34 1.7 0 0 Z " fill="#0FC2DF" transform="translate(160,45)"/>
<path d="M0 0 C5.28 0 10.56 0 16 0 C16 1.32 16 2.64 16 4 C15.34 4 14.68 4 14 4 C13.67 4.66 13.34 5.32 13 6 C11.66666667 6.33333333 10.33333333 6.66666667 9 7 C8.67 7.66 8.34 8.32 8 9 C7.34 9 6.68 9 6 9 C6 18.9 6 28.8 6 39 C4.02 38.67 2.04 38.34 0 38 C0 25.46 0 12.92 0 0 Z " fill="#0EC0DF" transform="translate(181,39)"/>
<path d="M0 0 C3.13154091 1.3522563 4.60619967 2.20362361 6.12841797 5.28198242 C7.04254465 8.13267497 7.23020883 10.31714527 7.1953125 13.30078125 C7.18886719 14.27724609 7.18242187 15.25371094 7.17578125 16.25976562 C7.15902344 17.26716797 7.14226562 18.27457031 7.125 19.3125 C7.11597656 20.33923828 7.10695313 21.36597656 7.09765625 22.42382812 C7.07416201 24.94945899 7.04131131 27.4746081 7 30 C5 31 5 31 -2 30 C-2.33 23.07 -2.66 16.14 -3 9 C-5.97 8.505 -5.97 8.505 -9 8 C-8.67 7.34 -8.34 6.68 -8 6 C-5.69 6 -3.38 6 -1 6 C-1.33 5.01 -1.66 4.02 -2 3 C-4.97 2.505 -4.97 2.505 -8 2 C-8 2.66 -8 3.32 -8 4 C-8.99 3.67 -9.98 3.34 -11 3 C-7.18184371 0.30483085 -4.67146691 -0.58393336 0 0 Z " fill="#2AB6D0" transform="translate(265,37)"/>
<path d="M0 0 C11.07364752 -0.44229066 21.45410227 -0.16254157 31 6 C30.875 7.6875 30.875 7.6875 30 10 C29.13375 10.680625 28.2675 11.36125 27.375 12.0625 C19.55860307 18.22542835 14.98972558 28.45167191 13 38 C12.06029963 46.55417962 13.039161 53.65726537 16.125 61.671875 C17 64 17 64 17 66 C16.01 66 15.02 66 14 66 C14 64.68 14 63.36 14 62 C12.68 62.99 11.36 63.98 10 65 C10.08378906 64.24074219 10.16757812 63.48148438 10.25390625 62.69921875 C10.35574219 61.70535156 10.45757812 60.71148437 10.5625 59.6875 C10.66691406 58.70136719 10.77132812 57.71523438 10.87890625 56.69921875 C11.16602527 53.90069653 11.16602527 53.90069653 10 51 C9.3192158 39.28417891 9.3192158 39.28417891 11.0625 34.125 C12.26998564 30.93906024 12.26998564 30.93906024 11.375 27.3125 C11 24 11 24 12.9375 21.5625 C13.618125 21.046875 14.29875 20.53125 15 20 C15.33 20.66 15.66 21.32 16 22 C16.33 20.35 16.66 18.7 17 17 C17.99 17 18.98 17 20 17 C20.5775 15.989375 21.155 14.97875 21.75 13.9375 C22.07484375 13.36902344 22.3996875 12.80054688 22.734375 12.21484375 C23.09978812 9.16794321 22.14694239 7.04912097 20.54589844 4.48217773 C17.43540753 1.49989879 13.3337376 2.01122708 9.25 2.0625 C7.91775391 2.03833008 7.91775391 2.03833008 6.55859375 2.01367188 C4.37082756 1.97838532 2.18776987 1.9748934 0 2 C0 1.34 0 0.68 0 0 Z " fill="#7DD0E5" transform="translate(39,1)"/>
<path d="M0 0 C1.890625 1.10546875 1.890625 1.10546875 4.828125 4.23046875 C5.158125 7.53046875 5.488125 10.83046875 5.828125 14.23046875 C-5.061875 14.72546875 -5.061875 14.72546875 -16.171875 15.23046875 C-16.501875 15.89046875 -16.831875 16.55046875 -17.171875 17.23046875 C-17.501875 16.57046875 -17.831875 15.91046875 -18.171875 15.23046875 C-19.161875 14.90046875 -20.151875 14.57046875 -21.171875 14.23046875 C-20.841875 11.92046875 -20.511875 9.61046875 -20.171875 7.23046875 C-18.851875 7.23046875 -17.531875 7.23046875 -16.171875 7.23046875 C-16.171875 8.22046875 -16.171875 9.21046875 -16.171875 10.23046875 C-15.12386719 10.32134766 -15.12386719 10.32134766 -14.0546875 10.4140625 C-13.14460937 10.49785156 -12.23453125 10.58164062 -11.296875 10.66796875 C-10.39195312 10.74917969 -9.48703125 10.83039062 -8.5546875 10.9140625 C-6.171875 11.23046875 -6.171875 11.23046875 -4.171875 12.23046875 C-3.79124279 9.90438305 -3.45917555 7.56991611 -3.171875 5.23046875 C-4.66930619 3.73303756 -6.16011739 3.89844182 -8.234375 3.66796875 C-9.53375 3.52359375 -10.833125 3.37921875 -12.171875 3.23046875 C-12.501875 4.22046875 -12.831875 5.21046875 -13.171875 6.23046875 C-14.491875 5.57046875 -15.811875 4.91046875 -17.171875 4.23046875 C-16.171875 1.23046875 -16.171875 1.23046875 -14.41015625 0.0703125 C-9.73857492 -1.6825496 -4.70368194 -1.66659234 0 0 Z " fill="#0EC0DF" transform="translate(234.171875,39.76953125)"/>
<path d="M0 0 C2.64 0 5.28 0 8 0 C8 9.57 8 19.14 8 29 C5.36 29 2.72 29 0 29 C0 19.43 0 9.86 0 0 Z " fill="#F59555" transform="translate(330,38)"/>
<path d="M0 0 C3.87915244 0.57468925 6.14756605 2.37884447 9 5 C10.04976964 8.14930893 10.10131595 10.38814456 10.0625 13.6875 C10.05347656 14.68136719 10.04445312 15.67523438 10.03515625 16.69921875 C10.02355469 17.45847656 10.01195312 18.21773437 10 19 C7.69 19.66 5.38 20.32 3 21 C2.92652344 19.55367187 2.92652344 19.55367187 2.8515625 18.078125 C2.77679688 16.81484375 2.70203125 15.5515625 2.625 14.25 C2.55539063 12.99703125 2.48578125 11.7440625 2.4140625 10.453125 C2.03883772 7.32389193 1.48646062 5.68288015 0 3 C0 2.01 0 1.02 0 0 Z " fill="#0AC0DD" transform="translate(198,39)"/>
<path d="M0 0 C1.98 0.66 3.96 1.32 6 2 C6 8.6 6 15.2 6 22 C4.02 22 2.04 22 0 22 C0 14.74 0 7.48 0 0 Z " fill="#FD904B" transform="translate(347,45)"/>
<path d="M0 0 C2.4375 0.75 2.4375 0.75 5 2 C6 3.9375 6 3.9375 6 6 C4.51862705 8.22205943 3.35296068 8.8890695 0.8125 9.6875 C-8.85714286 10.76190476 -8.85714286 10.76190476 -13 8 C-13 7.01 -13 6.02 -13 5 C-13.66 5 -14.32 5 -15 5 C-14.67 4.34 -14.34 3.68 -14 3 C-13.01 3 -12.02 3 -11 3 C-9.47752703 2.89687349 -7.95654287 2.77014742 -6.4375 2.625 C-5.65246094 2.55539063 -4.86742187 2.48578125 -4.05859375 2.4140625 C-1.78531779 2.15451059 -1.78531779 2.15451059 0 0 Z " fill="#0DC0E0" transform="translate(233,57)"/>
<path d="M0 0 C0.33 0.66 0.66 1.32 1 2 C1.99 1.67 2.98 1.34 4 1 C4.33 9.25 4.66 17.5 5 26 C3.02 25.67 1.04 25.34 -1 25 C-1.02505615 24.37432129 -1.0501123 23.74864258 -1.07592773 23.10400391 C-1.19175273 20.27745381 -1.31453985 17.45124831 -1.4375 14.625 C-1.47681641 13.64015625 -1.51613281 12.6553125 -1.55664062 11.640625 C-1.59853516 10.69960938 -1.64042969 9.75859375 -1.68359375 8.7890625 C-1.72025146 7.91975098 -1.75690918 7.05043945 -1.79467773 6.15478516 C-1.87401544 3.9516738 -1.87401544 3.9516738 -3 2 C-2.01 2 -1.02 2 0 2 C0 1.34 0 0.68 0 0 Z " fill="#0CC0DE" transform="translate(266,42)"/>
<path d="M0 0 C2.64 0 5.28 0 8 0 C8.33 0.66 8.66 1.32 9 2 C9.99 2.33 10.98 2.66 12 3 C12 2.34 12 1.68 12 1 C13.98 1 15.96 1 18 1 C18.33 2.32 18.66 3.64 19 5 C17.906875 5.061875 16.81375 5.12375 15.6875 5.1875 C11.98751685 5.61517305 11.98751685 5.61517305 10.3125 7.96875 C8.52496819 12.09709727 8.43559203 15.85656861 8.3125 20.3125 C8.27833984 21.14845703 8.24417969 21.98441406 8.20898438 22.84570312 C8.12694539 24.89667772 8.0617849 26.94831538 8 29 C7.67 29 7.34 29 7 29 C6.67 20.09 6.34 11.18 6 2 C4.35 1.67 2.7 1.34 1 1 C1 10.24 1 19.48 1 29 C0.67 29 0.34 29 0 29 C0 19.43 0 9.86 0 0 Z " fill="#22C0DF" transform="translate(245,38)"/>
<path d="M0 0 C0.56332031 0.71929687 1.12664063 1.43859375 1.70703125 2.1796875 C4.67620937 5.831726 7.87252905 9.24733897 11.07421875 12.6953125 C13 15 13 15 14 18 C6.50581795 23.07670397 -0.41868389 24.27435957 -9.3125 24.3125 C-10.10164795 24.31789795 -10.8907959 24.3232959 -11.70385742 24.32885742 C-18.66635108 24.24328654 -18.66635108 24.24328654 -22 22 C-21.18917969 22.01160156 -20.37835938 22.02320312 -19.54296875 22.03515625 C-4.81201922 22.36557851 -4.81201922 22.36557851 9 18 C9 17.34 9 16.68 9 16 C9 15.01 9 14.02 9 13 C8.071875 12.814375 7.14375 12.62875 6.1875 12.4375 C3 11 3 11 1.125 7.625 C0 4 0 4 0 0 Z " fill="#80D8EE" transform="translate(56,67)"/>
<path d="M0 0 C1.44010481 0.25662245 2.8770687 0.53090821 4.3125 0.8125 C5.11300781 0.96332031 5.91351563 1.11414062 6.73828125 1.26953125 C9.30120216 2.09727945 10.36976446 2.87514191 12 5 C12.875 8.5 12.875 8.5 13 12 C11.75 13.9375 11.75 13.9375 10 15 C9.01 15 8.02 15 7 15 C6.79375 13.906875 6.5875 12.81375 6.375 11.6875 C5.34336062 7.7714341 5.34336062 7.7714341 1.875 6.0625 C0.92625 5.711875 -0.0225 5.36125 -1 5 C-0.67 3.35 -0.34 1.7 0 0 Z " fill="#0CC0DF" transform="translate(160,45)"/>
<path d="M0 0 C0.515625 0.268125 1.03125 0.53625 1.5625 0.8125 C4.66401415 2.32349407 7.82262806 3.65572726 11 5 C9 8 9 8 6 9 C6.33 9.66 6.66 10.32 7 11 C5.375 11.75 5.375 11.75 3 12 C-2.712 8.864 -2.712 8.864 -4 5 C-2.0625 2.3125 -2.0625 2.3125 0 0 Z " fill="#27B5CC" transform="translate(148,55)"/>
<path d="M0 0 C0 0.66 0 1.32 0 2 C-1.98 2 -3.96 2 -6 2 C-6.268125 2.639375 -6.53625 3.27875 -6.8125 3.9375 C-8 6 -8 6 -11 7 C-10.01 7.33 -9.02 7.66 -8 8 C-9 11 -9 11 -11.3125 12.25 C-14.16620733 13.04638344 -15.29385757 13.08245697 -18 12 C-18.99 11.34 -19.98 10.68 -21 10 C-15.04489069 5.00968493 -8.05580118 0 0 0 Z " fill="#78D8F6" transform="translate(38,2)"/>
<path d="M0 0 C2.4375 1.6875 2.4375 1.6875 4.4375 4.6875 C3.1175 6.3375 1.7975 7.9875 0.4375 9.6875 C-2.47767292 8.61348892 -4.34060176 7.90939824 -6.5625 5.6875 C-4.9125 5.6875 -3.2625 5.6875 -1.5625 5.6875 C-1.2325 4.3675 -0.9025 3.0475 -0.5625 1.6875 C-2.3259375 1.9659375 -2.3259375 1.9659375 -4.125 2.25 C-8.11571104 2.76470301 -11.58189367 2.28834624 -15.5625 1.6875 C-18.37487541 2.04724895 -18.37487541 2.04724895 -20.5625 2.6875 C-15.36840522 -3.00127048 -6.83142408 -2.51684045 0 0 Z " fill="#25B8D0" transform="translate(168.5625,29.3125)"/>
<path d="M0 0 C0 3.29223784 -0.50518132 5.08510357 -2 8 C-2.66 8.28875 -3.32 8.5775 -4 8.875 C-6.38851882 9.9200738 -6.38851882 9.9200738 -7.0625 13.3125 C-7.371875 14.529375 -7.68125 15.74625 -8 17 C-8.97691857 18.68029994 -9.97388051 20.34928604 -11 22 C-13.67195244 29.90826192 -12.2989055 39.88184063 -11 48 C-15.41638062 41.37542907 -14.67876115 32.70680578 -14 25 C-12.06442276 15.36635555 -7.41024588 6.55521751 0 0 Z " fill="#84D8F1" transform="translate(16,13)"/>
<path d="M0 0 C5.64313915 0.93437598 9.813082 1.813082 14 6 C15.72732636 9.45465272 15.35415682 13.21576878 15 17 C13.65193976 20.44504283 12.4487336 21.68260306 9.4375 23.8125 C4.88036758 25.38678211 0.77242384 25.25465503 -4 25 C-4 24.67 -4 24.34 -4 24 C-3.39671875 23.93941406 -2.7934375 23.87882812 -2.171875 23.81640625 C-0.97304687 23.69072266 -0.97304687 23.69072266 0.25 23.5625 C1.03890625 23.48128906 1.8278125 23.40007812 2.640625 23.31640625 C4.82364639 23.02365007 6.8773182 22.57935581 9 22 C9 20.35 9 18.7 9 17 C9.99 16.67 10.98 16.34 12 16 C12.84536152 12.69540498 13.19139177 10.58784614 12.125 7.3125 C9.38267399 4.32820405 6.81658772 3.69272459 2.9609375 2.67578125 C1 2 1 2 0 0 Z " fill="#2AB6CF" transform="translate(159,43)"/>
<path d="M0 0 C0.66 0.66 1.32 1.32 2 2 C-0.97 2 -3.94 2 -7 2 C-7 1.34 -7 0.68 -7 0 C-8.423125 0.2784375 -8.423125 0.2784375 -9.875 0.5625 C-13 1 -13 1 -15 0 C-21.41438128 -0.41290179 -26.94288301 -0.27141887 -33 2 C-35.15625 1.55859375 -35.15625 1.55859375 -37 1 C-35.783125 0.525625 -34.56625 0.05125 -33.3125 -0.4375 C-32.62800781 -0.70433594 -31.94351563 -0.97117188 -31.23828125 -1.24609375 C-21.06593323 -4.672382 -9.99101243 -3.54729757 0 0 Z " fill="#E78235" transform="translate(113,4)"/>
<path d="M0 0 C1.9375 0.375 1.9375 0.375 4 1 C5.32229189 3.64458379 5.09677194 5.67761301 5.0625 8.625 C5.05347656 9.62789062 5.04445313 10.63078125 5.03515625 11.6640625 C5.02355469 12.43492188 5.01195312 13.20578125 5 14 C3.02 14 1.04 14 -1 14 C-1.02694851 12.04174127 -1.04637218 10.08337774 -1.0625 8.125 C-1.07410156 7.03445312 -1.08570313 5.94390625 -1.09765625 4.8203125 C-1 2 -1 2 0 0 Z " fill="#FD904C" transform="translate(332,53)"/>
<path d="M0 0 C0.99 0.103125 1.98 0.20625 3 0.3125 C5 3.3125 5 3.3125 4.6875 5.9375 C4 8.3125 4 8.3125 3 9.3125 C0.0625 9.5 0.0625 9.5 -3 9.3125 C-5 7.3125 -5 7.3125 -5.25 4.8125 C-4.86676958 0.9801958 -3.75087075 0.3907157 0 0 Z " fill="#F29357" transform="translate(334,25.6875)"/>
<path d="M0 0 C9.54152703 -0.38109649 19.2538447 -0.37307765 28 4 C28.625 6.5625 28.625 6.5625 29 9 C25.6875 8.8125 25.6875 8.8125 22 8 C21.62875 7.175 21.2575 6.35 20.875 5.5 C19.29767808 2.84938019 19.29767808 2.84938019 16.9855957 2.49682617 C14.41919438 2.2819515 11.88777476 2.20445499 9.3125 2.1875 C8.41982422 2.16236328 7.52714844 2.13722656 6.60742188 2.11132812 C4.40450561 2.05242662 2.20357681 2.01617246 0 2 C0 1.34 0 0.68 0 0 Z " fill="#7BD5F2" transform="translate(39,1)"/>
<path d="M0 0 C0.33 0 0.66 0 1 0 C1.33 1.65 1.66 3.3 2 5 C2.99 5.33 3.98 5.66 5 6 C5.38133299 7.9914056 5.71325582 9.99279077 6 12 C5 13 5 13 1.5625 13.1875 C-2 13 -2 13 -4 11 C-3.65561395 6.86736741 -1.93570031 3.61891796 0 0 Z " fill="#F59353" transform="translate(320,55)"/>
<path d="M0 0 C1.875 1.5 1.875 1.5 3 3 C-2.75 4 -2.75 4 -5 4 C-5 4.33 -5 4.66 -5 5 C-2.69 5.33 -0.38 5.66 2 6 C2 6.66 2 7.32 2 8 C-0.31 8.33 -2.62 8.66 -5 9 C-5.66 10.98 -6.32 12.96 -7 15 C-7.33 15 -7.66 15 -8 15 C-8.03738281 14.30132812 -8.07476562 13.60265625 -8.11328125 12.8828125 C-8.17902344 11.97273438 -8.24476563 11.06265625 -8.3125 10.125 C-8.37050781 9.22007813 -8.42851562 8.31515625 -8.48828125 7.3828125 C-8.7882039 4.63778399 -8.7882039 4.63778399 -12 3 C-7.82561234 0.61463562 -4.83415572 -0.6445541 0 0 Z " fill="#F19357" transform="translate(293,37)"/>
<path d="M0 0 C2.5625 2.5625 2.5625 2.5625 4 5 C1.33333333 3.66666667 -1.33333333 2.33333333 -4 1 C-3.505 1.9075 -3.01 2.815 -2.5 3.75 C-0.21201459 8.95973205 -0.75285987 14.425617 -1 20 C-1.66 20 -2.32 20 -3 20 C-2.95875 18.948125 -2.9175 17.89625 -2.875 16.8125 C-2.99210036 13.24093907 -3.34719928 11.12195691 -5 8 C-5.66 7.67 -6.32 7.34 -7 7 C-7 6.34 -7 5.68 -7 5 C-6.34 5 -5.68 5 -5 5 C-5.33 4.01 -5.66 3.02 -6 2 C-8.31 2 -10.62 2 -13 2 C-10.68710164 -2.62579672 -4.22709147 -1.15214948 0 0 Z " fill="#26BAD5" transform="translate(202,38)"/>
<path d="M0 0 C0.99 0.33 1.98 0.66 3 1 C4.6875 4.5625 4.6875 4.5625 6 8 C6.66 7.67 7.32 7.34 8 7 C8 5.35 8 3.7 8 2 C10.6855594 4.6855594 11.06049974 7.37621328 12 11 C11.21625 11.28875 10.4325 11.5775 9.625 11.875 C6.90328368 12.84912254 6.90328368 12.84912254 5 15 C4.16013916 13.06532058 3.32831973 11.12714871 2.5 9.1875 C2.0359375 8.10855469 1.571875 7.02960937 1.09375 5.91796875 C0 3 0 3 0 0 Z " fill="#F39455" transform="translate(367,50)"/>
<path d="M0 0 C2.31 0 4.62 0 7 0 C7 1.98 7 3.96 7 6 C5.35 5.67 3.7 5.34 2 5 C1.67 6.65 1.34 8.3 1 10 C0.01 9.67 -0.98 9.34 -2 9 C-2.66 9.66 -3.32 10.32 -4 11 C-4 9.02 -4 7.04 -4 5 C-3.01 5 -2.02 5 -1 5 C-0.67 3.35 -0.34 1.7 0 0 Z " fill="#FB914B" transform="translate(351,26)"/>
<path d="M0 0 C0 0.99 0 1.98 0 3 C0.66 3 1.32 3 2 3 C2 2.01 2 1.02 2 0 C2.66 0 3.32 0 4 0 C4 1.65 4 3.3 4 5 C-1.79141983 6.01603857 -5.4584498 5.96263236 -11 4 C-10.67 3.01 -10.34 2.02 -10 1 C-6.78548731 -0.60725635 -3.56387464 -0.05748185 0 0 Z " fill="#FC9148" transform="translate(358,39)"/>
<path d="M0 0 C0.99 0 1.98 0 3 0 C3 0.99 3 1.98 3 3 C4.32 2.01 5.64 1.02 7 0 C7.66 0.33 8.32 0.66 9 1 C9.4140625 3.28515625 9.4140625 3.28515625 9.625 6.0625 C9.69976562 6.98160156 9.77453125 7.90070312 9.8515625 8.84765625 C9.90054688 9.55792969 9.94953125 10.26820312 10 11 C8.35 11 6.7 11 5 11 C5 10.34 5 9.68 5 9 C4.34 8.34 3.68 7.68 3 7 C3.66 6.34 4.32 5.68 5 5 C4.01 5 3.02 5 2 5 C1.34 3.35 0.68 1.7 0 0 Z " fill="#18BCD8" transform="translate(230,43)"/>
<path d="M0 0 C1.32 0.66 2.64 1.32 4 2 C4.125 7.75 4.125 7.75 3 10 C3.39938767 12.09821215 3.39938767 12.09821215 4 14 C2.35 13.67 0.7 13.34 -1 13 C-1.33 11.02 -1.66 9.04 -2 7 C-1.01 6.67 -0.02 6.34 1 6 C0.67 4.02 0.34 2.04 0 0 Z " fill="#0BC0DF" transform="translate(149,33)"/>
<path d="M0 0 C0.84498047 1.07894531 0.84498047 1.07894531 1.70703125 2.1796875 C4.67620937 5.831726 7.87252905 9.24733897 11.07421875 12.6953125 C13 15 13 15 14 18 C12.68 17.67 11.36 17.34 10 17 C9.938125 16.071875 9.938125 16.071875 9.875 15.125 C9.58625 14.42375 9.2975 13.7225 9 13 C8.05125 12.731875 7.1025 12.46375 6.125 12.1875 C3 11 3 11 1.125 7.625 C0 4 0 4 0 0 Z " fill="#7AC8D7" transform="translate(56,67)"/>
<path d="M0 0 C0.969375 0.185625 1.93875 0.37125 2.9375 0.5625 C3.948125 0.706875 4.95875 0.85125 6 1 C6.33 0.67 6.66 0.34 7 0 C8.99958364 -0.04080783 11.00045254 -0.04254356 13 0 C12.01 0.495 12.01 0.495 11 1 C11.33 1.99 11.66 2.98 12 4 C14.47130918 5.15521502 14.47130918 5.15521502 17 6 C18 7 18 7 18.0625 9.5625 C18.041875 10.366875 18.02125 11.17125 18 12 C17.75765625 11.37222656 17.5153125 10.74445312 17.265625 10.09765625 C15.67600127 7.4630021 14.67264955 7.2278083 11.75 6.4375 C7.9231719 5.30179618 4.48107729 4.00161944 1 2 C0.67 1.34 0.34 0.68 0 0 Z " fill="#26B9D5" transform="translate(148,46)"/>
<path d="M0 0 C2.97 0.33 5.94 0.66 9 1 C10 4 10 4 9.0625 6.1875 C8.711875 6.785625 8.36125 7.38375 8 8 C8.66 8 9.32 8 10 8 C10.33 8.99 10.66 9.98 11 11 C8 11 8 11 6.2109375 9.35546875 C5.60507813 8.64003906 4.99921875 7.92460938 4.375 7.1875 C3.76398438 6.47980469 3.15296875 5.77210937 2.5234375 5.04296875 C1 3 1 3 0 0 Z " fill="#5A3B1B" transform="translate(61,73)"/>
<path d="M0 0 C3.87915244 0.57468925 6.14756605 2.37884447 9 5 C10.04976964 8.14930893 10.10131595 10.38814456 10.0625 13.6875 C10.05347656 14.68136719 10.04445312 15.67523438 10.03515625 16.69921875 C10.02355469 17.45847656 10.01195312 18.21773437 10 19 C9.67 19 9.34 19 9 19 C8.93941406 18.30132812 8.87882813 17.60265625 8.81640625 16.8828125 C8.73261719 15.97273438 8.64882812 15.06265625 8.5625 14.125 C8.48128906 13.22007813 8.40007812 12.31515625 8.31640625 11.3828125 C8.13010715 8.98889139 8.13010715 8.98889139 7 7 C5.35 7 3.7 7 2 7 C0.5393715 4.35261084 0 3.10551666 0 0 Z " fill="#27BBDC" transform="translate(198,39)"/>
<path d="M0 0 C1.4540625 0.0309375 1.4540625 0.0309375 2.9375 0.0625 C-2.80249608 3.88916405 -7.99563798 4.3822069 -14.6875 4.3125 C-15.43773438 4.32023437 -16.18796875 4.32796875 -16.9609375 4.3359375 C-20.80075255 4.32232113 -23.81152411 4.22981726 -27.0625 2.0625 C-26.24007812 2.07410156 -25.41765625 2.08570312 -24.5703125 2.09765625 C-14.27806226 2.19398584 -14.27806226 2.19398584 -4.0625 1.0625 C-3.0625 0.0625 -3.0625 0.0625 0 0 Z " fill="#E78237" transform="translate(110.0625,86.9375)"/>
<path d="M0 0 C0.99 0.33 1.98 0.66 3 1 C2.875 2.6875 2.875 2.6875 2 5 C0.54086256 6.2321605 -0.92296534 7.46044428 -2.43359375 8.62890625 C-4.87184618 10.76313718 -6.33000719 13.23808882 -8 16 C-9 13 -9 13 -8.29296875 11.02734375 C-7.92816406 10.33769531 -7.56335937 9.64804688 -7.1875 8.9375 C-6.83042969 8.24527344 -6.47335938 7.55304687 -6.10546875 6.83984375 C-4.37045382 3.9522394 -3.23204992 3.07734997 0 2 C0 1.34 0 0.68 0 0 Z " fill="#7BCADA" transform="translate(67,6)"/>
<path d="M0 0 C1.22419163 3.93795909 0.48320272 6.16112237 -1 10 C-1.66 10 -2.32 10 -3 10 C-2.67 11.32 -2.34 12.64 -2 14 C-3.75 15.5625 -3.75 15.5625 -6 17 C-8.140625 16.58984375 -8.140625 16.58984375 -10 16 C-9.61328125 15.59910156 -9.2265625 15.19820312 -8.828125 14.78515625 C-4.67331881 10.24983564 -2.20595577 5.72250879 0 0 Z " fill="#E7751F" transform="translate(88,61)"/>
<path d="M0 0 C5.31498256 5.31498256 4.80543458 14.95142541 5 22 C4.83373472 24.42668136 4.499063 26.61558787 4 29 C3.67 29 3.34 29 3 29 C2.95101562 27.77023438 2.90203125 26.54046875 2.8515625 25.2734375 C2.77648971 23.64060434 2.70094385 22.00779288 2.625 20.375 C2.57859375 19.16263672 2.57859375 19.16263672 2.53125 17.92578125 C2.26647183 12.49782876 1.46098184 7.92196368 -1 3 C-0.67 2.01 -0.34 1.02 0 0 Z " fill="#E28036" transform="translate(135,27)"/>
<path d="M0 0 C2.875 -0.125 2.875 -0.125 6 0 C6.66 0.66 7.32 1.32 8 2 C7.3125 3.9375 7.3125 3.9375 6 6 C3.375 6.75 3.375 6.75 1 7 C0.67 4.69 0.34 2.38 0 0 Z " fill="#FC9349" transform="translate(364,73)"/>
<path d="M0 0 C2.4375 0.75 2.4375 0.75 5 2 C6 3.9375 6 3.9375 6 6 C4.6875 7.75 4.6875 7.75 3 9 C2.34 9 1.68 9 1 9 C1 7.35 1 5.7 1 4 C-0.65 4 -2.3 4 -4 4 C-2.68 2.68 -1.36 1.36 0 0 Z " fill="#2BB5CB" transform="translate(233,57)"/>
<path d="M0 0 C0.66 0.33 1.32 0.66 2 1 C1.67 1.66 1.34 2.32 1 3 C2.32 3.33 3.64 3.66 5 4 C5.33 5.32 5.66 6.64 6 8 C2.05957221 8 0.91141781 6.53815912 -2 4 C-2.66 3.34 -3.32 2.68 -4 2 C-2.125 0.9375 -2.125 0.9375 0 0 Z " fill="#E57D26" transform="translate(74,6)"/>
<path d="M0 0 C0.33 0.66 0.66 1.32 1 2 C0.0625 4.125 0.0625 4.125 -1 6 C0.98 7.32 2.96 8.64 5 10 C4.01 10.495 4.01 10.495 3 11 C1.0546875 10.22265625 1.0546875 10.22265625 -1.125 9.0625 C-1.84945312 8.68222656 -2.57390625 8.30195312 -3.3203125 7.91015625 C-3.87460938 7.60980469 -4.42890625 7.30945313 -5 7 C-3.64062915 4.1394109 -2.35479531 2.14072301 0 0 Z " fill="#E67C2D" transform="translate(77,78)"/>
<path d="M0 0 C0.99 0.33 1.98 0.66 3 1 C2.67 2.32 2.34 3.64 2 5 C2.66 5.33 3.32 5.66 4 6 C2.02 6.33 0.04 6.66 -2 7 C-2.33 6.01 -2.66 5.02 -3 4 C-1.5625 1.8125 -1.5625 1.8125 0 0 Z " fill="#18BCDE" transform="translate(148,57)"/>
<path d="M0 0 C2.5625 2.5625 2.5625 2.5625 4 5 C1.33333333 3.66666667 -1.33333333 2.33333333 -4 1 C-4 1.66 -4 2.32 -4 3 C-10.75 2.125 -10.75 2.125 -13 1 C-8.59975056 -1.57014569 -4.83172403 -1.41848779 0 0 Z " fill="#31B2C8" transform="translate(202,38)"/>
<path d="M0 0 C2.6875 0.3125 2.6875 0.3125 5 1 C4.67 2.32 4.34 3.64 4 5 C2.02 5.33 0.04 5.66 -2 6 C-2.33 5.01 -2.66 4.02 -3 3 C-1.8125 1.4375 -1.8125 1.4375 0 0 Z " fill="#0DBDE3" transform="translate(163,30)"/>
<path d="M0 0 C2.08268593 -0.08126087 4.16628658 -0.13930839 6.25 -0.1875 C7.99023438 -0.23970703 7.99023438 -0.23970703 9.765625 -0.29296875 C13.22268407 0.02017066 14.51565563 0.65709108 17 3 C14.03 3 11.06 3 8 3 C8 2.34 8 1.68 8 1 C6.576875 1.309375 6.576875 1.309375 5.125 1.625 C4.09375 1.74875 3.0625 1.8725 2 2 C1.34 1.34 0.68 0.68 0 0 Z " fill="#F17E2A" transform="translate(98,3)"/>
<path d="M0 0 C0.33 0 0.66 0 1 0 C1.01417969 0.66386719 1.02835938 1.32773437 1.04296875 2.01171875 C1.27049181 8.17255195 1.27049181 8.17255195 4.5625 13.125 C5.366875 13.74375 6.17125 14.3625 7 15 C4.36 14.34 1.72 13.68 -1 13 C-0.67 8.71 -0.34 4.42 0 0 Z " fill="#27B4D0" transform="translate(187,48)"/>
<path d="M0 0 C0.96349722 2.60144251 1.0123938 3.94670665 0.375 6.6875 C-1 9 -1 9 -3.625 9.8125 C-4.800625 9.9053125 -4.800625 9.9053125 -6 10 C-4.6302836 6.00499382 -2.74277578 3.19990508 0 0 Z " fill="#523A18" transform="translate(63,15)"/>
<path d="M0 0 C1.98 0.495 1.98 0.495 4 1 C4 2.98 4 4.96 4 7 C3.01 7.33 2.02 7.66 1 8 C-1.125 3.375 -1.125 3.375 0 0 Z " fill="#FD9345" transform="translate(372,51)"/>
<path d="M0 0 C1.875 1.5 1.875 1.5 3 3 C1.02 3.33 -0.96 3.66 -3 4 C-3 3.67 -3 3.34 -3 3 C-5.97 2.505 -5.97 2.505 -9 2 C-5.53076119 -0.31282587 -4.07794425 -0.42478586 0 0 Z " fill="#ED9A68" transform="translate(293,37)"/>
<path d="M0 0 C1.04005702 3.38018531 1.08004482 6.4780279 1 10 C0.67 10 0.34 10 0 10 C-0.33 11.98 -0.66 13.96 -1 16 C-1.33 16 -1.66 16 -2 16 C-2.20413361 10.26157749 -2.27141454 5.39460953 0 0 Z " fill="#503C1F" transform="translate(54,29)"/>
<path d="M0 0 C2.475 0.495 2.475 0.495 5 1 C4.67 2.65 4.34 4.3 4 6 C2.68 6 1.36 6 0 6 C0 4.02 0 2.04 0 0 Z " fill="#17C5E3" transform="translate(252,40)"/>
<path d="M0 0 C1.875 0.1875 1.875 0.1875 4 1 C5.25 3.5625 5.25 3.5625 6 6 C5.01 6 4.02 6 3 6 C3 4.68 3 3.36 3 2 C1.68 2.99 0.36 3.98 -1 5 C-0.67 3.35 -0.34 1.7 0 0 Z " fill="#78CFE4" transform="translate(50,61)"/>
<path d="M0 0 C0.99 0.33 1.98 0.66 3 1 C3.33 3.97 3.66 6.94 4 10 C1.7448078 7.7448078 1.02276532 5.9952413 0 3 C0 2.01 0 1.02 0 0 Z " fill="#EB9D5A" transform="translate(367,50)"/>
<path d="M0 0 C0.66 0 1.32 0 2 0 C7 5.47619048 7 5.47619048 7 8 C3.28631113 6.76210371 2.22645819 5.14775123 0 2 C0 1.34 0 0.68 0 0 Z " fill="#80DBF2" transform="translate(10,71)"/>
<path d="M0 0 C-0.66 0 -1.32 0 -2 0 C-2 1.65 -2 3.3 -2 5 C-2.66 5 -3.32 5 -4 5 C-4.66 3.35 -5.32 1.7 -6 0 C-3 -1 -3 -1 0 0 Z " fill="#08C3D7" transform="translate(236,61)"/>
<path d="M0 0 C2.64 0 5.28 0 8 0 C8 0.99 8 1.98 8 3 C5.36 2.67 2.72 2.34 0 2 C0 1.34 0 0.68 0 0 Z " fill="#2DB6D3" transform="translate(222,49)"/>
<path d="M0 0 C0.66 0.33 1.32 0.66 2 1 C2 2.65 2 4.3 2 6 C1.34 6 0.68 6 0 6 C0 5.34 0 4.68 0 4 C-0.66 4 -1.32 4 -2 4 C-2.33 3.01 -2.66 2.02 -3 1 C-2.01 0.67 -1.02 0.34 0 0 Z " fill="#12C2E6" transform="translate(228,60)"/>
<path d="M0 0 C0.99 0.99 1.98 1.98 3 3 C1.35 3.66 -0.3 4.32 -2 5 C-2 3.68 -2 2.36 -2 1 C-1.34 0.67 -0.68 0.34 0 0 Z " fill="#FC9546" transform="translate(388,42)"/>
<path d="M0 0 C1.32 0.33 2.64 0.66 4 1 C3.67 2.98 3.34 4.96 3 7 C0 3.375 0 3.375 0 0 Z " fill="#0AC2DD" transform="translate(198,39)"/>
<path d="M0 0 C5.75 -0.125 5.75 -0.125 8 1 C8 1.66 8 2.32 8 3 C7.21625 2.79375 6.4325 2.5875 5.625 2.375 C4.75875 2.25125 3.8925 2.1275 3 2 C2.34 2.66 1.68 3.32 1 4 C0.67 2.68 0.34 1.36 0 0 Z " fill="#76DDF7" transform="translate(59,4)"/>
</svg>
